<?xml version="1.0" encoding="UTF-8"?>
<svg id="Layer_1" data-name="Layer 1" xmlns="http://www.w3.org/2000/svg" viewBox="-15 -15 280.13 287.63">
  <path d="M246.17,114.35c-3.49-2.18-7.27-3.55-10.85-5.49-4.6-2.97-10.01-4.43-14.57-7.56-2.7-.93-5.26-2.54-7.8-3.8-4.05-1.5-7.81-3.66-11.5-5.78-6.26-3.37-12.77-5.85-19.04-9.48-6.17-2.75-7.07-4.22-7.73-11.09-.31-2.27-.66-4.63-.58-6.97,0-.14.01-.28.01-.42.02-.32.04-.64.08-.97-.05-.26-.08-.51-.12-.77-.01-.54-.02-1.07.03-1.58.17-1.24-.12-2.51-.3-3.65-.02-.05-.03-.1-.04-.15.01-.42.02-.84.05-1.27-.12-.86-.24-1.72-.35-2.58.62-1.39.01-3.17-.35-4.58-.15-1.4,0-3.02-.38-4.39-.16-.66-.19-1.46-.5-2.11-.12-1.48-.21-2.96-.28-4.45-1.03-6.66-.9-13.42-1.75-20.1-.5-4.07-.16-8.29-1.38-12.19-3.87-10.43-13.8-2.04-18.31,3.29-2.76,2-4.72,4.88-7.57,6.65-1.67,1.85-3.24,3.84-5.47,5-2.46,2.44-4.82,5.03-7.3,7.45-1.29.62-2.37,1.68-3.26,2.82-.27.23-.53.46-.79.69-.3.23-.6.45-.86.75-.03.04-.07.08-.11.12-.22.2-.43.41-.64.61-.24.19-.5.38-.72.57-.54.52-1.02.97-1.33,1.43-.14.14-.28.28-.41.42-.83,0-1.64.94-2.23,1.52-.6.65-1.31.94-1.92,1.48-.9.76-1.59,1.87-2.48,2.59-.52.52-1.13,1.14-1.61,1.83-1.56,1.46-3.05,2.99-4.46,4.53-2.42,2.12-4.88,3.83-7.07,6.26-2.08,2.23-5.16,2.43-7.91,1.75-3.88.24-7.46-1.01-11.37-.99-5.83.09-11.44-1.21-17.22-1.36-2.22.05-4.19-.78-6.46-.62-3.44-.3-6.9-1.1-10.38-.98-3.2.48-6.26-.94-9.44-.64-4.29.02-8.34-1.17-12.61-1.2-4.88.01-10.69-2.82-14.4,1.76-3.27,3.99-.25,9.09,2.4,12.5,1.18,1.7,2.18,3.68,3.36,5.39,1.2,1.43,2.35,2.77,3.11,4.5,1.23,1.88,3.15,3.43,3.93,5.61,1.9,2.37,3.68,4.96,5.11,7.69,1.44,2.02,2.75,4.29,4.34,6.28,1.01,1.51,1.33,3.49,2.68,4.85,1.96,1.86,3.48,4.02,4.68,6.48,1.37,1.84,2.85,3.61,3.77,5.66,2.85,3.41,5.93,7.86,3.71,12.47-3.35,4.25-6.49,8.83-9.76,13.19-4.08,4.91-7.52,10.33-11.77,15.1-6.75,9.7-14.05,18.94-21.4,28.15-1.05,2.48-3.65,3.92-4.68,6.36-.65,1.53-1.97,2.8-1.97,4.55.32,2.85,1.92,6.83,5.06,7.28,3.37.15,6.75.62,10.08-.09,5.56-.85,11.23-.59,16.81-.95,1.78.15,3.32-.66,5.08-.6,3.04-.08,6.01-.04,9.05-.45,4.57-.63,9.26-.04,13.79-.82,4.38-.71,8.93-.14,13.3-.36,3.92-.99,8.06-1.01,12.08-.6,3.95-.46,7.76-.92,11.7-.3,2.46.15,3.9,1.33,5.38,3.14,2.12,1.79,3.89,3.97,5.75,6.05,3.32,2.88,6.11,6.52,9.21,9.61,2.46,2.85,5.4,5.44,7.88,8.31,3.26,3.74,6.59,7.5,10.39,10.75,3.89,4.87,8.5,8.95,12.83,13.39,4.06,4.14,7.5,8.97,11.97,12.7,9.46,3.93,10.89-3.48,10.75-11.19.07-3.1.47-5.86,1.01-8.9-.17-2.64.11-5.48-.06-8.14.56-4.79.99-9.9.79-14.72.27-1.68.46-3.35.34-5,1.04-5.36.56-10.79.94-16.18.72-3.29.37-6.6.39-9.99.66-3.28.84-6.49.58-9.83v-.04c.08-3.34,3.13-5.55,5.77-6.79,1.8-1.12,3.45-2.07,5.46-2.73,3.04-1.92,5.88-4.4,9.27-5.68.92-.63,1.86-1.68,2.79-2.3,1.88-.84,3.62-1.62,5.26-2.96,1.61-1.38,3.72-2.01,5.6-2.92,2.14-1.08,3.92-2.67,6.05-3.73,2.6-1.86,5.51-3.48,8.39-4.75,1.72-1.4,3.44-2.92,5.66-3.33,2.31-1.18,4.41-2.97,6.64-4.3,1.43-.99,3.12-1.28,4.51-2.49,3.56-2.86,9.39-3.46,9.56-9.15.52-2.73-1.86-5.51-3.94-7.04l.05-.03Z"/>
</svg>