<?xml version="1.0" encoding="UTF-8"?>
<svg id="Layer_1" data-name="Layer 1" xmlns="http://www.w3.org/2000/svg" viewBox="0 0 205.27 184.87">
  <path d="M203.85,101.34c-1.51-1.18-2.7-2.32-4.58-2.92-1.52-.27-3.17-.36-4.73-.25-7.76-.23-10.24,5.38-10.66-2.61-.41-1.67-.69-3.47-1.18-5.14-.34-1.14-.89-2.13-1.21-3.33-.28-1.13-.37-2.35-.87-3.41-1.01-2.35-2.36-4.04-3.42-6.33-.34-1.05-1.02-1.98-1.47-2.98-.28-1.2-.93-2.24-1.67-3.23-2.39-2.3-3.68-5.65-5.86-8.15-1.03-.92-1.95-2.21-2.71-3.34-.6-.72-1.41-1.12-1.99-1.84-1.09-.94-1.8-2.36-3.14-3.04-2.06-1.78-3.87-4.15-6.27-5.5-2.67-1.4-4.79-3.66-7.49-5.15-1.2-.89-2.77-1.28-4.12-1.83-1.84-1.16-4.04-1.92-6.12-2.54-1.9-1.11-3.64-1.91-5.72-2.45-1.42-.31-2.66-.97-4-1.49-3.45-1.04-7.02-1.9-10.62-2.16-1.2-.25-2.34-.42-3.51-.92-1.42-.37-2.96-.41-4.41-.52h-.6c.13-.12.26-.24.4-.36.58-.6.79-1.31,1.47-1.97.35-.38.63-.81,1.01-1.18.51-.54,1.27-.93,1.71-1.49.61-.7,1.08-1.56,1.58-2.28.64-.64.78-1.32,1.14-2.2.94-1.8,1.71-3.83,2.04-5.81-.02-1.06-.36-2.16-.4-3.29.07-1.44-.01-2.78-1.21-3.69-.96-.71-2.1-1.28-3.3-1.49-.99-.3-1.97-.03-2.94.13-.49.06-.99.09-1.44.3-.75.27-1.3.92-1.79,1.57-.82.78-1.75,1.79-2.21,2.78-.21.56-.25,1.2-.55,1.73-.23.47-.24,1.07-.57,1.63-.14.25-.28.51-.39.78-.26.54-.75,2.56-1.28,1.34-.23-.66-.6-1.2-.84-1.92-.15-.87-.36-1.59-.79-2.42-.32-1.05-.91-1.99-1.4-2.89-.42-1.06-1.19-1.83-1.84-2.74-1.06-1.39-1.65-3.41-3.2-4.18-1.43-.64-3.11-1.45-4.46-2.25-1.05-.6-1.98-1.07-3.19-1.45-1.83-.36-3.71-.52-5.55-.83-1.34-.19-2.48.51-3.71.92-2.5.72-5.54,1.5-6.69,4.09-.58,1.43-.98,3.27-.77,4.86.29,1.29,1.44,2.21,2.1,3.26.46,1.02,1.49,1.69,2.23,2.43.37.28.6.69,1.01.92.28.2.65.35.93.6.64.72,1.64,1.27,2.5,1.8,1.15.44,2.3,1.04,3.33,1.57.83.45,2,1.43,2.88,2.16.82.62,1.78,1.13,2.23,2.03.42.86.82,1.8,1.2,2.71.63.88,1.06,1.73,1.41,2.76.34,1,.57,2,.73,3.01h-.04c-2.01.09-3.85.33-5.82.91-1.4.52-2.64.49-3.99.93-1.88.69-3.9.54-5.68,1.5-5.6,1.79-10.88,4.44-16.04,7.24-1.79,1.25-3.77,2.29-5.62,3.48-.77-.67-1.46-1.42-2.37-1.89-1.12-.71-2.68-1.22-3.82-1.7-1.49-.7-3.18-1.05-4.74-1.36-.35-.26-.69-.31-1.12-.37-.26-.06-.59,0-.97,0-.42,0-.9-.18-1.4-.21-.74-.03-1.4-.4-2.11-.41-1.39.02-2.95-.05-4.35.09-.58.13-1.23.17-1.84.3-.76.09-1.52-.08-2.3.04-1.71.36-3.22,1.13-4.93,1.51h-.04c-2.09.53-3.72,2.12-5.64,2.98-1.42.9-2.45,2.24-3.96,3.04-2.83,1.95-4.41,4.72-6.59,7.32-1.16,1.39-1.83,3.31-2.47,4.92-.35,1.02-.83,1.89-.95,2.95-.66,1.85-1.28,3.99-1.72,5.97-.51,1.73-.45,3.44-.05,5.15.09.92.17,2.24.22,3.29-.16,1.85.64,3.54,1.21,5.24.4,1.01.34,2.15.57,3.1.13.31.27.59.3.94.16,1,.36,1.96.69,2.99.36.83.85,1.51,1.23,2.38.72,1.73,2.22,3.18,3.28,4.65.58.83,1.06,1.67,1.74,2.43.76.83,1.86,1.6,2.71,2.45,1.88,1.72,3.25,2.7,5.51,4.06.16.13.34.24.51.36-.02,2.27.01,4.48.35,6.75.25,1.75-.07,3.41.22,5.13.3,2.31,1.63,4.63,2.09,6.82.18,3.13,1.99,5.92,2.62,8.9.22,1.53,1.1,2.77,1.84,4.1,1.26,2.64,2.94,5.09,4.31,7.64.8,1.96,2.56,3.1,3.7,4.85.61.86,1.18,1.63,1.99,2.31,1.29,1.65,2.37,3.48,3.86,4.97,1.81,2.55,4.36,4.26,6.84,6.1,2.15,1.42,3.72,2.98,5.97,4.28,1.2.62,2.06,1.66,3.15,2.4,1.4.92,2.88,1.69,4.2,2.75,2.37.98,4.6,2.28,7.12,2.85,1.71.53,3.19,1.69,4.97,2.11.61.11,1.21.23,1.77.48,1.38.58,2.64,1.37,4.06,1.89.92.23,1.8.36,2.71.63,3.08.66,6.4,1.7,9.59,1.67,1.55.3,3.27.34,4.83.5.89-.06,1.64.21,2.52.28.58.01,1.2-.04,1.8,0h.04c2.31.1,4.73-.13,7.04-.45,1.73-.01,3.29.21,4.96.14,1.54-.23,2.99-.62,4.53-.74,2.58-.42,5.05-.77,7.53-1.76,3.07-.92,6.25-1.66,9.29-2.61,2.25-.45,3.83-1.98,6.06-2.43,1.24-.26,2.24-.53,3.23-1.23,1.47-.85,2.85-1.35,4.39-1.98,1.23-.64,2.62-1.09,3.8-1.81,1.02-.75,2.04-1.21,3.3-1.74,1.62-.73,3.41-1.03,4.96-1.86,2.21-.91,3.96-2.45,6.28-3.08,1.52-.61,2.87-1.58,4.61-1.54,2.1.1,3.05,2.5,4.26,3.86,1.08,1.11,2.42,1.83,3.68,2.66,1.73,1.54,3.6,2.82,5.66,3.93,3.19,1.25,6.81.81,8.47-2.57.82-1.15.56-2.67.66-3.98.02-1.16.13-2.29.31-3.44-.08-2.11-.03-4.1-.05-6.2-.2-1.65-.96-3.12-1.31-4.71-.23-1.4-.37-2.56-.92-3.77-.29-1-1.06-1.62-1.47-2.59-.43-1.17-.87-2.5-1.5-3.68-1.63-2.77-3.65-4.94-5.55-7.57-1.15-1.2-3.05-2.73-4.04-3.98.29-.45,2.07-.61,2.73-.91,1.17-.51,2.29-.61,3.5-.83,2.92-.88,5.68-2.22,8.22-3.99,2.58-1.58,5.23-3.38,6.89-5.97.89-1.22,2.24-1.95,2.93-3.28,1.17-2.1,2.91-4.11,3.42-6.55.46-2.88,1.31-6.45-.8-8.87l-.06.03Z"/>
</svg>