<?xml version="1.0" encoding="UTF-8"?>
<svg id="Layer_1" xmlns="http://www.w3.org/2000/svg" version="1.1" viewBox="0 0 149.78 202.52">
  <!-- Generator: Adobe Illustrator 29.8.2, SVG Export Plug-In . SVG Version: 2.1.1 Build 3)  -->
  <path d="M149.33,84.02c-.13-.78-.37-1.39-.57-1.89-.22-.56-.32-.84-.33-1.17.04-1.8.09-4.03-1.24-6.05-.51-1.06-.94-2.02-1.16-2.94-.24-1.19-.52-2.45-1.16-3.73-.47-.87-.9-1.75-1.33-2.63-.25-.51-.5-1.02-.75-1.53-.13-.31-.24-.62-.35-.94-.24-.68-.52-1.46-.93-2.23l-.07-.13c-.55-.88-.99-1.93-1.45-3.04-.47-1.13-.96-2.29-1.6-3.37-.94-2.17-2.43-5.21-4.35-7.79-.09-.24-.18-.48-.27-.73-.34-.93-.73-1.99-1.45-3.03-.99-1.32-1.83-2.48-2.71-3.73-.74-1.81-1.68-3.33-2.61-4.7-.45-1.06-1.1-1.83-1.68-2.52-.29-.34-.56-.66-.77-.98-.87-1.74-1.85-3.56-3.34-5.14-.8-1.2-1.73-2.26-2.79-3.18-.25-.24-.46-.66-.71-1.16-.34-.68-.77-1.51-1.49-2.26-1.07-1.4-2.08-2.5-3.17-3.46-.93-.99-1.89-1.79-2.81-2.57-.4-.33-.8-.67-1.21-1.03-1.74-2-3.73-3.76-5.92-5.24l-.24-.14c-1.33-.68-2.43-1.27-3.33-2.05-1.03-.92-2.2-1.21-3.14-1.44-.39-.1-.77-.19-.99-.29-2.08-.99-4.29-1.45-6.56-1.38-.49.03-1,0-1.5,0-.45,0-.89-.03-1.34-.02l-.29.02c-.7.1-1.33.29-1.88.45-.42.12-.82.24-1.19.3-1.52.13-3.01.29-4.51.74l-.22.08c-1.09.45-2.18.87-3.27,1.28-.9.34-1.81.69-2.65,1.02-.3.11-.6.22-.91.33-1.37.48-2.93,1.02-4.27,2.06-1.28.74-2.41,1.62-3.5,2.47l-.61.48c-1.21.59-2.18,1.48-3.05,2.26-.33.3-.66.6-.99.87-1.07.64-1.95,1.48-2.74,2.22-.53.5-1.03.98-1.53,1.34l-.24.2c-.5.48-1,.91-1.51,1.34-.54.46-1.07.92-1.58,1.41l-.22.25c-.43.55-.89,1.08-1.49,1.7-.95.72-1.74,1.42-2.47,2.39-.28.27-.64.56-1.02.86-.27.21-.54.43-.86.7-.53.49-.91,1.01-1.24,1.47-.19.27-.38.52-.53.68-.58.59-1.21,1.14-1.87,1.73-.38.33-.75.67-1.13,1.01l-.2.18-.44.66c-.51.77-.9,1.38-1.45,1.75l-.17.13c-1.23,1.02-2.54,2.44-4.06,4.43-.38.55-1.01,1.15-1.62,1.73-.43.41-.85.82-1.16,1.16-1.04,1.05-2.06,1.99-3.1,2.96-.59.55-1.19,1.1-1.8,1.69l-.1.11c-.5.54-.96,1.12-1.42,1.7-.66.83-1.28,1.61-1.96,2.18l-.13.12c-1.21,1.18-2.41,2.32-3.77,3.35l-.1.08c-1.61,1.36-3,3-4.16,4.86-.63.7-1.19,1.42-1.73,2.13-.57.74-1.1,1.43-1.7,2.07-.99,1.09-1.61,2.27-2.16,3.32-.16.3-.32.6-.48.9l-.14.3c-.03.09-.26.35-.41.52-.26.3-.52.6-.69.86-.8,1.08-1.18,2.27-1.51,3.32-.13.4-.26.81-.4,1.16-.96,2.25-1.29,4.39-1.04,6.63l.02.3c.07,1.19.16,2.55.75,3.89.63,1.46,1.67,2.55,2.72,3.49.3.42.63.8.92,1.14.18.2.35.4.51.6.6.94,1.39,1.47,2.02,1.91.29.2.55.37.72.54l.2.19.24.14c.07.04.26.26.38.4.27.31.63.73,1.14,1.1.67.61,1.39,1.02,2.04,1.39.33.19.65.37.95.58l.16.11c.22.13.42.32.68.56.41.38.91.84,1.63,1.23,1.01.55,2.04.67,2.91.75-.23.49-.42.99-.59,1.46-.22.59-.44,1.16-.67,1.56-.88,1.26-1.57,2.67-2.19,4.43-.26.76-.69,1.52-1.13,2.33-.22.39-.43.78-.63,1.17l-.18.47c-.37,1.45-1.2,2.98-1.98,4.43-.61,1.26-1.08,2.57-1.55,3.83-.41,1.11-.79,2.16-1.25,3.16-2,3.13-2.96,6.58-3.9,9.91l-.25.88c-.21.43-.43.86-.64,1.29-.81,1.59-1.64,3.23-2.08,5.02-.32,1.05-.5,2.09-.68,3.1-.21,1.2-.41,2.33-.81,3.3l-.05.14c-.23.71-.29,1.37-.34,1.91-.02.22-.04.45-.08.71-.07.48-.27,1.02-.47,1.59-.27.77-.58,1.64-.69,2.61-.18.82-.23,1.64-.27,2.37-.03.44-.05.88-.12,1.37-.05.48-.12.94-.18,1.39-.19,1.42-.39,2.88-.33,4.55-.08,1.09.1,2.11.26,3.03.06.32.11.64.16.98.03.19.03.38.03.56,0,.51.03,1.2.28,1.94.21.64.38,1.31.55,2.02.36,1.46.73,2.97,1.57,4.47.69,1.48,1.63,2.75,2.53,3.97.53.72,1.03,1.4,1.46,2.09l.09.13c.78,1.08,1.75,1.83,2.61,2.49.45.35.88.68,1.24,1.02l.13.11c.56.46,1.18.97,1.81,1.48.52.42,1.04.84,1.52,1.24l.27.19c2.01,1.21,4.11,2.31,6.14,3.21.48.24.93.52,1.38.8.88.54,1.88,1.15,3.07,1.55,1.14.4,2.3.7,3.42.99.97.25,1.88.49,2.76.78l.2.06c.45.1.91.32,1.45.58.59.28,1.27.6,2.06.81l.26.06c2.4.36,4.4.71,6.48,1.12,2.12.6,4.14.84,6.1,1.08.87.1,1.75.21,2.65.35l.13.02c.68.06,1.4.23,2.17.4,1.44.32,3.06.69,4.83.47.27,0,.69.15,1.09.28.6.19,1.28.41,2.06.47h.36c.7-.06,1.55.1,2.45.29.64.13,1.31.26,2,.33l.21.02.21-.02c.57-.05,1.31.08,2.09.22.47.08.94.17,1.39.22l.3.04.29-.04c.93-.14,1.91-.1,2.94-.06.93.04,1.9.08,3.04-.02.43-.05,1,.02,1.6.1.58.08,1.22.16,1.89.16.42,0,.85-.03,1.3-.12l.16-.04c.88-.24,1.9-.24,2.97-.25,1.05,0,2.14,0,3.29-.22,1.19-.06,2.33-.2,3.43-.33,1.36-.17,2.64-.32,3.93-.32l.37-.03c.74-.12,1.51-.32,2.26-.51.75-.19,1.52-.39,2.06-.47,1.75-.18,3.41-.53,5.01-.87,1.54-.33,3-.64,4.51-.79l.36-.04.33-.15c1.28-.58,2.67-.99,4.15-1.43,1.44-.43,2.92-.87,4.35-1.48l.21-.1c.71-.4,1.41-.77,2.1-1.14,1.09-.58,2.21-1.17,3.34-1.85,1.66-.68,3.17-1.74,4.77-3.35.4-.42.73-.85,1.04-1.27.25-.33.48-.64.72-.89l.14-.11c1.06-.85,2.15-1.73,2.93-3.25,1.44-2.38,2.96-5.16,3.16-8.28.75-3.5.63-7.07.46-10.15l-.02-.17c-.04-.27,0-.68.05-1.11.07-.72.17-1.63-.02-2.51-.32-1.9-.31-3.85-.31-5.91v-.19c.03-1.31-.18-2.44-.37-3.44-.18-.95-.33-1.78-.29-2.55.26-2.19-.49-4.17-1.12-5.77-.16-.7-.19-1.49-.23-2.34-.04-.95-.07-1.92-.3-3.01-.11-.49-.14-1.17-.17-1.83-.02-.44-.04-.87-.08-1.29l-.08-.41c-.08-.29-.18-.59-.27-.88-.24-.76-.47-1.48-.51-2.2-.16-1.92-.37-3.96-.97-5.99-.09-.32-.11-.74-.13-1.22-.02-.45-.05-.96-.14-1.51l-.08-.32c-.24-.75-.49-1.55-.73-2.49-.19-.63-.23-1.29-.28-2.05-.02-.29-.04-.59-.07-.89l-.03-.2c-.1-.55-.21-1.11-.32-1.66-.25-1.27-.48-2.46-.61-3.65l-.05-.3c-.25-.99-.51-1.95-.78-2.91,0-.03-.02-.07-.03-.1.59-.09,1.18-.2,1.72-.35,2.09-.18,3.86-.61,5.55-1.34,1.13-.41,2.15-.78,3.32-1.15l.4-.17c1.63-.9,3.1-2.04,4.51-3.14l.33-.26.33-.32c2-2.35,3.05-5.51,3.21-9.65.32-2.16.23-4.19-.26-6.05h.01Z"/>
</svg>