<?xml version="1.0" encoding="UTF-8"?>
<svg id="Layer_1" data-name="Layer 1" xmlns="http://www.w3.org/2000/svg" viewBox="0 0 149.78 202.52">
  <path d="M149.37,83.92c-.2-1.41-.96-2.18-.98-3.71.04-1.77.07-3.57-.99-5.07-.6-1.25-1.15-2.46-1.47-3.77-.21-1.07-.46-2.2-.97-3.23-.79-1.48-1.49-2.99-2.23-4.46-.43-1.04-.71-2.14-1.26-3.17-1.31-2.11-2.01-4.76-3.28-6.84-1.17-2.72-2.69-5.66-4.49-8.01-.5-1.19-.86-2.58-1.6-3.66-1.08-1.44-2.02-2.73-3.02-4.17-.7-1.78-1.63-3.3-2.71-4.9-.55-1.44-1.7-2.3-2.51-3.58-.9-1.81-1.84-3.57-3.27-5.03-.75-1.16-1.63-2.16-2.68-3.08-1.1-1.05-1.33-2.64-2.44-3.7-.95-1.25-1.97-2.43-3.17-3.47-1.33-1.43-2.74-2.47-4.21-3.78-1.7-1.98-3.65-3.71-5.8-5.16-1.42-.73-2.77-1.44-3.95-2.47-1.03-.92-2.5-.87-3.74-1.43-1.78-.85-3.71-1.28-5.69-1.21-1.01.06-2.04-.04-3.04-.02-1.12.17-2.14.61-3.25.79-1.45.13-2.91.27-4.32.69-2.09.86-4.18,1.6-6.23,2.42-1.64.61-3.5,1.1-4.9,2.23-1.57.88-2.96,2.06-4.36,3.13-1.56.68-2.82,2.19-4.11,3.19-1.64.93-2.87,2.56-4.39,3.66-1.07,1.02-2.18,1.88-3.22,2.87-.59.75-1.2,1.42-1.85,2.09-.91.68-1.67,1.32-2.33,2.25-.63.65-1.45,1.22-2.16,1.82-.69.63-1.11,1.49-1.75,2.15-1.02,1.04-2.13,1.94-3.2,2.93-.72,1.08-1.34,2.17-2.44,2.92-1.36,1.13-2.71,2.73-3.79,4.14-.83,1.2-2.19,2.26-3.16,3.32-1.72,1.72-3.36,3.18-5.14,4.88-1.28,1.39-2.31,3.06-3.75,4.25-1.34,1.31-2.63,2.53-4.14,3.67-1.58,1.34-2.9,2.92-3.96,4.69-1.32,1.43-2.38,3.09-3.72,4.53-1.1,1.2-1.68,2.61-2.43,3.96-.3.79-.97,1.29-1.46,2-.9,1.21-1.15,2.8-1.72,4.18-.83,1.95-1.12,3.75-.9,5.83.08,1.2.11,2.45.62,3.58.53,1.22,1.47,2.14,2.44,2.99.48.71,1.14,1.38,1.65,2.04.61,1.02,1.72,1.38,2.57,2.21.78.45,1.12,1.26,1.88,1.76.88.84,2.05,1.29,3,1.98.91.55,1.38,1.31,2.32,1.81,1.09.59,2.45.45,3.59.66.57.28,1.21.61,1.85.79.02.01.04.01.06.02-.21.44-.47.86-.83,1.23-.93,1.24-1.29,3.19-2.11,4.53-.9,1.26-1.52,2.64-2.03,4.11-.48,1.39-1.29,2.64-1.96,3.94-.45,1.76-1.36,3.45-2.22,5.04-1.13,2.35-1.83,4.97-2.96,7.38-2.16,3.32-3.1,7.17-4.18,10.93-1.01,2.11-2.22,4.12-2.79,6.41-.68,2.24-.73,4.68-1.62,6.86-.25.76-.21,1.56-.35,2.35-.23,1.53-1.08,2.93-1.2,4.39-.29,1.2-.22,2.52-.39,3.78-.24,2.1-.6,3.86-.5,5.96-.13,1.23.25,2.54.41,3.78.11.76-.02,1.47.22,2.2.72,2.17.92,4.41,2.06,6.42,1.02,2.21,2.77,4.07,4.05,6.13.99,1.38,2.52,2.18,3.73,3.34,1.07.89,2.36,1.92,3.45,2.82,2.01,1.21,4.09,2.3,6.22,3.25,1.49.75,2.73,1.78,4.35,2.32,2.09.72,4.31,1.15,6.4,1.83,1.35.31,2.42,1.1,3.75,1.47,2.38.36,4.57.73,6.94,1.21,3,.86,5.86.97,8.9,1.44,2.3.21,4.53,1.23,6.88.9,1.25-.06,2.43.7,3.61.78,1.7-.16,3.45.48,5.06.64,1.34-.12,2.76.3,4.12.47,2.13-.31,4.14.08,6.26-.08,1.59-.2,3.23.49,4.84.18,2.24-.6,4.58-.12,6.85-.56,2.7-.12,5.24-.69,7.91-.69,1.42-.24,3.15-.81,4.65-1.04,3.38-.34,6.5-1.38,9.89-1.73,2.84-1.28,6.05-1.83,8.87-3.05,1.97-1.1,3.86-2,5.76-3.17,1.67-.66,3.07-1.74,4.33-3.01.66-.69,1.19-1.6,1.92-2.36,1.13-.91,2.1-1.63,2.73-2.9,1.47-2.43,2.88-5.04,3.01-7.79.73-3.29.65-6.75.46-10.1-.16-1.19.3-2.46.05-3.68-.38-2.25-.36-4.49-.35-6.77.05-2.36-.82-4.12-.67-6.45.2-1.74-.45-3.44-1.07-5.02-.49-1.87-.2-3.85-.59-5.74-.26-1.1-.2-2.41-.31-3.56-.34-1.18-.82-2.36-.89-3.65-.17-1.98-.37-3.9-.93-5.81-.28-1.01-.16-2.04-.33-3.06-.26-.82-.53-1.69-.78-2.63-.35-1.2-.34-2.29-.45-3.51-.34-1.89-.77-3.77-.99-5.68-.49-1.94-1.04-3.79-1.52-5.68h.02c1.32-.15,3.03-.33,4.31-.69,1.83-.14,3.57-.49,5.31-1.25,1.23-.45,2.34-.85,3.61-1.25,1.66-.91,3.22-2.16,4.73-3.33,2.04-2.4,2.68-5.64,2.78-8.73.29-1.87.27-3.79-.23-5.59v-.04Z"/>
</svg>